HIERARCHY
ROOT RootJoint
{
    OFFSET   0.000000   0.000000   0.000000
    CHANNELS 6 Xposition Yposition Zposition Xrotation Yrotation Zrotation
    JOINT pelvis_lowerback
    {
        OFFSET   0.000000   0.093605   0.000000
        CHANNELS 3 Xrotation Yrotation Zrotation
        JOINT lowerback_torso
        {
            OFFSET   0.000000   0.100000   0.000000
            CHANNELS 3 Xrotation Yrotation Zrotation
            JOINT torso_head
            {
                OFFSET   0.000000   0.282350   0.000000
                CHANNELS 3 Xrotation Yrotation Zrotation
                End Site
                {
                    OFFSET   0.000000   0.192650   0.000000
                }
            }
            JOINT rTorso_Clavicle
            {
                OFFSET  -0.001000   0.157500   0.000000
                CHANNELS 3 Xrotation Yrotation Zrotation
                JOINT rShoulder
                {
                    OFFSET  -0.117647   0.000000   0.000000
                    CHANNELS 3 Xrotation Yrotation Zrotation
                    JOINT rElbow
                    {
                        OFFSET  -0.245000   0.000000   0.000000
                        CHANNELS 3 Xrotation Yrotation Zrotation
                        JOINT rWrist
                        {
                            OFFSET  -0.240000   0.000000   0.000000
                            CHANNELS 3 Xrotation Yrotation Zrotation
                            End Site
                            {
                                OFFSET  -0.116353  -0.002500   0.000000
                            }
                        }
                    }
                }
            }
            JOINT lTorso_Clavicle
            {
                OFFSET   0.001000   0.157500   0.000000
                CHANNELS 3 Xrotation Yrotation Zrotation
                JOINT lShoulder
                {
                    OFFSET   0.117647   0.000000   0.000000
                    CHANNELS 3 Xrotation Yrotation Zrotation
                    JOINT lElbow
                    {
                        OFFSET   0.245000   0.000000   0.000000
                        CHANNELS 3 Xrotation Yrotation Zrotation
                        JOINT lWrist
                        {
                            OFFSET   0.240000   0.000000   0.000000
                            CHANNELS 3 Xrotation Yrotation Zrotation
                            End Site
                            {
                                OFFSET   0.116353  -0.002500   0.000000
                            }
                        }
                    }
                }
            }
        }
    }
    JOINT rHip
    {
        OFFSET  -0.100000  -0.051395   0.000000
        CHANNELS 3 Xrotation Yrotation Zrotation
        JOINT rKnee
        {
            OFFSET   0.000000  -0.410000   0.000000
            CHANNELS 3 Xrotation Yrotation Zrotation
            JOINT rAnkle
            {
                OFFSET   0.000000  -0.390000   0.000000
                CHANNELS 3 Xrotation Yrotation Zrotation
                JOINT rToeJoint
                {
                    OFFSET   0.000000  -0.050000   0.130000
                    CHANNELS 3 Xrotation Yrotation Zrotation
                    End Site
                    {
                        OFFSET  -0.010000   0.002000   0.060000
                    }
                }
            }
        }
    }
    JOINT lHip
    {
        OFFSET   0.100000  -0.051395   0.000000
        CHANNELS 3 Xrotation Yrotation Zrotation
        JOINT lKnee
        {
            OFFSET   0.000000  -0.410000   0.000000
            CHANNELS 3 Xrotation Yrotation Zrotation
            JOINT lAnkle
            {
                OFFSET   0.000000  -0.390000   0.000000
                CHANNELS 3 Xrotation Yrotation Zrotation
                JOINT lToeJoint
                {
                    OFFSET   0.000000  -0.050000   0.130000
                    CHANNELS 3 Xrotation Yrotation Zrotation
                    End Site
                    {
                        OFFSET   0.010000   0.002000   0.060000
                    }
                }
            }
        }
    }
}
MOTION
Frames: 5
Frame Time:   0.008333
 -2.641155   0.899203   4.218679  -0.653588  43.240809  -2.916637   0.983060   0.376879  -1.046239  -5.265033   2.393017   1.136250  -0.929139  -0.303809  -0.595004  -2.322653   0.028442  -6.672062  -1.768783  17.392592  41.758648 -179.998278  65.807210 179.999212  -7.101670   9.584594  -3.327583  -7.725631   9.177766  14.887594 -47.717646  18.437993 -12.204301   0.020264 -62.547102   0.010463 -12.273637  -6.294299  29.960271 -11.906364  -7.654658  -3.401899  24.692240  -0.000916  -0.001903  -9.018971  -5.152050   1.404809  -6.563355  -0.004931  -0.056229   5.223587   4.581710  18.783281  22.510491  -0.032988  -0.032187   0.839064  10.438451  -5.445704 -38.625023   0.018958   0.026900
 -2.643060   0.896774   4.223852  -1.137295  42.296151  -2.537457   1.163787   0.356098  -0.955076  -5.298741   2.527341   0.996426  -0.969556  -0.391068  -0.617305  -2.374232   0.315710  -6.500115  -2.199296  17.947048  41.784772 179.998555  66.173238 -179.997139  -7.054698   9.695150  -3.426602  -7.572316   9.277604  14.530691 -47.323316  18.627239 -12.281725   0.024100 -63.045954   0.012993 -12.301786  -6.309742  29.968083 -11.744959  -7.433569  -3.075731  25.434053  -0.003949  -0.005290 -10.709518  -4.745635   1.200127  -5.615939  -0.006890  -0.047043   4.806550   4.637328  19.048708  24.863893  -0.039067  -0.033116   0.997243  10.494894  -5.550301 -39.499419   0.017945   0.026657
 -2.644927   0.894767   4.228639  -1.615901  41.245347  -2.102283   1.364012   0.436947  -0.883384  -5.287071   2.730666   0.841181  -1.003594  -0.474880  -0.632751  -2.423068   0.664642  -6.321262  -2.617892  18.510004  41.830608 179.996576  66.537289 -179.995116  -7.020783   9.675977  -3.430687  -7.412293   9.363590  14.128050 -46.925201  18.828879 -12.404459   0.027257 -63.514406   0.015377 -12.324493  -6.337164  29.888624 -11.522337  -7.232477  -2.804933  25.972579  -0.005749  -0.007506 -12.193440  -4.433926   0.954607  -4.829063  -0.007399  -0.040882   4.375094   4.672044  19.209947  27.283415  -0.044873  -0.035628   1.271081  10.513304  -5.650952 -39.350803   0.013840   0.020357
 -2.646687   0.892840   4.232990  -2.043827  40.116941  -1.721002   1.568725   0.571919  -0.763039  -5.261496   2.976532   0.704511  -1.032750  -0.551523  -0.643007  -2.482517   1.032565  -6.170249  -3.027122  19.057220  41.874212 179.995214  66.878263 -179.993863  -6.992147   9.636192  -3.394439  -7.256816   9.451470  13.726123 -46.540563  19.035565 -12.535944   0.029216 -63.946472   0.017137 -12.366245  -6.328400  29.781761 -11.316892  -7.055152  -2.538301  26.430072  -0.006897  -0.009141 -13.549941  -4.147370   0.722207  -4.109484  -0.007444  -0.036480   3.962574   4.663365  19.259091  29.562055  -0.048246  -0.039799   1.765481  10.431002  -5.753822 -36.187263   0.004732  -0.009647
 -2.648227   0.891988   4.237369  -2.585971  39.278609  -1.404498   1.835803   0.610197  -0.548000  -5.184936   3.140361   0.632211  -1.054417  -0.626457  -0.645083  -2.509649   1.357590  -5.971381  -3.384484  19.558369  41.933148 179.994095  67.207236 -179.993230  -6.964340   9.565674  -3.305949  -7.101691   9.508424  13.272532 -46.162144  19.242383 -12.706312   0.030279 -64.353699   0.018237 -12.396518  -6.336242  29.634408 -11.234405  -6.720125  -2.215087  27.326938  -0.008603  -0.010151 -14.094781  -3.687266   0.434964  -3.470686  -0.006232  -0.029083   3.600108   4.644793  19.533331  31.781467  -0.049625  -0.037152   2.151996  10.493115  -5.822387 -34.761453  -0.002754  -0.014411
